<?xml version="1.0" standalone="no"?>
<!DOCTYPE svg PUBLIC "-//W3C//DTD SVG 20010904//EN"
 "http://www.w3.org/TR/2001/REC-SVG-20010904/DTD/svg10.dtd">
<svg version="1.0" xmlns="http://www.w3.org/2000/svg"
 width="600.000000pt" height="600.000000pt" viewBox="0 0 600.000000 600.000000"
 preserveAspectRatio="xMidYMid meet">

<g transform="translate(0.000000,600.000000) scale(0.100000,-0.100000)"
fill="#000000" stroke="none">
<path d="M2830 5024 c-291 -24 -527 -87 -775 -208 -206 -101 -345 -198 -504
-351 -273 -264 -472 -604 -566 -970 -42 -165 -58 -291 -58 -480 -1 -214 28
-391 94 -592 l31 -93 152 0 151 0 17 80 c21 100 73 209 135 279 123 141 335
222 540 208 l83 -6 102 49 c116 55 256 99 403 126 84 16 146 19 380 18 496 -2
838 -58 1060 -172 203 -105 288 -325 211 -541 -9 -24 -16 -45 -16 -46 0 -1
123 0 273 3 183 3 274 8 279 16 4 6 21 54 37 106 83 263 109 538 77 802 -110
881 -804 1605 -1676 1747 -114 19 -343 32 -430 25z m395 -197 c309 -58 556
-165 794 -345 367 -277 617 -668 713 -1117 20 -98 23 -135 23 -345 -1 -247 -8
-302 -70 -512 l-16 -58 -85 0 -85 0 3 325 c2 179 0 325 -3 325 -4 0 -41 -16
-83 -35 l-76 -34 0 106 0 107 -62 63 c-34 35 -65 63 -68 63 -3 0 -4 -65 -2
-145 2 -80 -1 -152 -6 -160 -7 -13 -17 -7 -55 34 l-47 50 0 378 -1 378 -162
178 -162 179 -5 -556 -5 -557 -52 53 -53 53 -2 224 -3 224 -87 -104 -88 -104
0 -157 0 -158 -30 0 -30 0 0 155 0 155 -40 0 -40 0 0 345 c0 338 0 345 -20
345 -14 0 -20 7 -20 23 0 12 -7 31 -15 41 -8 11 -15 35 -15 53 0 32 -1 33 -44
33 l-44 0 -12 -50 c-7 -28 -16 -53 -21 -56 -5 -3 -9 -14 -9 -25 0 -10 -7 -19
-15 -19 -13 0 -15 -59 -15 -470 0 -258 -2 -470 -5 -470 -4 0 -19 7 -35 15
l-30 16 0 254 0 255 -50 0 -50 0 0 -135 0 -135 -24 11 c-33 15 -34 31 -32 456
l1 353 -22 0 c-20 0 -23 5 -23 40 0 29 -4 40 -15 40 -11 0 -15 12 -15 49 l0
50 -43 6 c-23 4 -58 5 -77 3 -34 -3 -35 -4 -38 -53 -2 -31 -9 -53 -18 -58 -8
-5 -12 -13 -8 -18 12 -19 -6 -59 -26 -59 -19 0 -20 -7 -20 -171 l0 -172 -45 6
-45 7 0 -305 0 -305 -40 0 -40 0 0 -140 c0 -77 -2 -140 -4 -140 -2 0 -11 -3
-20 -6 -14 -6 -16 28 -16 340 l0 346 -54 0 -54 0 -12 120 c-7 66 -16 120 -20
120 -4 0 -11 -54 -15 -120 l-7 -120 -54 0 -54 0 0 -400 0 -400 -25 0 -25 0 0
123 -1 122 -79 88 -80 87 0 -168 0 -169 -55 -59 -54 -59 -1 278 0 277 -95 0
-96 0 1 -291 c1 -287 1 -292 -21 -315 -12 -13 -26 -21 -30 -18 -5 3 -9 45 -9
95 l0 89 -80 0 -80 0 0 -218 c0 -214 -1 -219 -22 -240 l-23 -21 3 80 4 79 -26
0 -26 0 0 -150 0 -150 -39 0 -38 0 -22 73 c-106 360 -90 781 44 1127 241 626
810 1086 1455 1179 41 6 86 13 100 15 53 9 369 -3 445 -17z m-560 -1062 c0
-17 -8 -20 -49 -23 -52 -3 -72 7 -62 33 4 13 17 15 58 13 45 -3 53 -6 53 -23z
m5 -155 c0 -18 -7 -20 -60 -20 -53 0 -60 2 -60 20 0 18 7 20 60 20 53 0 60 -2
60 -20z m1350 -60 c0 -17 -7 -20 -40 -20 -33 0 -40 3 -40 20 0 17 7 20 40 20
33 0 40 -3 40 -20z m-1836 -26 c30 -12 18 -34 -19 -34 -22 0 -35 5 -35 13 0
26 21 34 54 21z m16 -144 c0 -16 -7 -20 -35 -20 -28 0 -35 4 -35 20 0 16 7 20
35 20 28 0 35 -4 35 -20z m1815 -15 c0 -18 -8 -20 -72 -23 -73 -3 -73 -3 -73
23 0 26 0 26 73 23 64 -3 72 -5 72 -23z m3 -147 c-3 -21 -8 -23 -73 -23 -65 0
-70 2 -73 23 -3 21 -1 22 73 22 74 0 76 -1 73 -22z"/>
<path d="M2765 3003 c-180 -23 -380 -81 -530 -153 -99 -47 -101 -48 -165 -39
-73 9 -206 -3 -270 -26 -107 -38 -221 -132 -287 -237 -39 -62 -40 -65 -10 -71
19 -4 18 -4 -5 -6 -23 -1 -29 -7 -37 -38 -6 -21 -12 -53 -13 -71 -3 -34 6 -43
72 -70 21 -9 15 -11 -37 -11 -35 -1 -63 -5 -63 -11 0 -6 -63 -10 -170 -10
l-171 0 65 -128 c69 -134 159 -272 178 -272 6 0 32 13 58 30 63 40 234 120
354 165 193 71 527 144 807 176 l107 11 -32 51 c-26 43 -32 62 -35 129 -5 124
37 210 124 249 73 33 168 17 217 -38 51 -56 72 -171 46 -244 -13 -33 -13 -32
-18 46 -5 64 -11 88 -33 123 -34 53 -80 82 -130 82 -151 0 -225 -230 -115
-356 30 -34 34 -36 82 -30 112 14 623 45 816 51 113 3 238 8 278 11 l72 6 -20
27 c-46 65 -46 192 0 267 60 96 190 98 254 5 30 -43 43 -122 27 -161 l-10 -25
0 25 c-3 89 -70 180 -132 180 -122 0 -180 -175 -97 -292 19 -27 22 -28 119
-28 l99 0 25 38 c60 92 56 233 -11 310 -103 120 -289 53 -336 -122 l-12 -45
-130 -30 c-179 -42 -328 -68 -411 -75 -38 -2 -59 -3 -45 0 170 33 279 75 340
131 41 37 80 99 80 127 0 24 -44 31 -195 30 -213 -1 -309 -33 -407 -137 -31
-32 -48 -43 -48 -33 0 27 -36 90 -72 125 -77 76 -164 91 -256 45 -93 -46 -152
-151 -152 -269 0 -58 3 -57 -145 -95 -73 -18 -275 -44 -283 -35 -2 2 20 10 50
19 29 9 67 24 85 35 40 25 70 78 53 95 -7 7 -78 13 -191 17 -99 3 -182 8 -184
11 -3 3 45 8 107 11 136 8 218 22 274 48 22 11 90 60 150 110 121 99 180 128
284 138 l65 6 -64 8 c-151 17 -265 5 -426 -44 -171 -53 -357 -149 -466 -241
l-46 -39 -84 3 -84 3 70 71 c146 147 360 233 690 275 205 26 586 9 691 -31 21
-8 27 -5 51 31 44 67 155 128 237 130 29 0 27 1 -14 15 -102 33 -270 54 -413
53 -78 -1 -155 -4 -172 -6z m-336 -326 c-8 -7 -35 -28 -60 -48 -88 -71 -117
-83 -199 -80 -43 2 -44 2 -25 17 50 38 244 122 285 123 13 0 13 -1 -1 -12z
m-819 -86 c-21 -43 -23 -44 -53 -32 -17 6 -14 12 23 45 23 21 44 35 47 33 2
-3 -5 -23 -17 -46z"/>
<path d="M3535 2965 c6 -2 50 -16 98 -31 l88 -29 -66 -16 c-66 -17 -67 -17
-118 7 -108 50 -238 17 -325 -82 -43 -48 -43 -48 -20 -57 13 -5 77 -7 143 -4
93 5 157 15 285 46 183 45 314 54 403 27 26 -8 47 -12 47 -9 0 10 -152 74
-233 97 -93 27 -246 56 -287 55 -14 0 -20 -2 -15 -4z"/>
<path d="M4190 2253 c-801 -25 -1326 -120 -1472 -265 -49 -49 -53 -106 -10
-156 116 -134 529 -237 1294 -323 l206 -23 48 39 c192 158 403 438 508 678
l26 57 -258 -2 c-141 -1 -295 -3 -342 -5z"/>
<path d="M2675 2095 c-208 -53 -344 -112 -462 -198 -192 -142 -234 -351 -109
-540 130 -196 392 -301 781 -314 253 -8 449 19 679 94 l108 36 -228 77 c-262
87 -362 128 -524 211 -210 107 -328 199 -374 291 -44 88 -34 148 35 223 49 53
86 77 188 121 95 42 72 42 -94 -1z"/>
</g>
</svg>
